# xmcd
#
# Track frame offsets:
#	150
#	8386
#	21473
#	47598
#	60812
#	72143
#	83802
#	95522
#	118866
#	137585
#	147400
#	157470
#	166495
#	181625
#	194035
#	201084
#	219814
#	232992
#
# Disc length: 3329 seconds
#
# Revision: 1
# Processed by: cddbd v1.5.1PL0 Copyright (c) Steve Scherf et al.
# Submitted via: audiograbber 1.82.01
#
DISCID=f30cff12
DTITLE=Diverse Interpreten - Die MarschParade
DYEAR=2004
DGENRE=Marsch
TTITLE0=Polizeiorchester Potsdam - Preußens Gloria
TTITLE1=Rundfunk Blasorchester Leipzig - Grenadiermarsch
TTITLE2=Stabsmusikkorps Erfurt - Der alte Dessauer
TTITLE3=Stabsmusikkorps Erfurt - Großenhainer Marsch
TTITLE4=Stabsmusikkorps Erfurt - Fehrbelliner Reitermarsch
TTITLE5=Stabsmusikkorps Erfurt - Der Königsgrätzer Marsch
TTITLE6=Zentrales Militärorchester Berlin - Yorkscher Marsch
TTITLE7=Zentrales Militärorchester Berlin - Florentiner Marsch
TTITLE8=Zentrales Militärorchester Berlin - Rákóczi-Marsch
TTITLE9=Zentrales Militärorchester Berlin - Radetzky Marsch
TTITLE10=Stabsmusikkorps Erfurt - Petersburger Marsch
TTITLE11=Rundfunk Blasorchester Leipzig - Bayrischer Defiliermarsch
TTITLE12=Rundfunk Blasorchester Leipzig - Deutschmeister-Regimentsmarsch
TTITLE13=Stabsmusikkorps Erfurt - Castaldo-Marsch
TTITLE14=Polizeiorchester Potsdam - Der Hohenfriedberger
TTITLE15=Zentrales Militärorchester Berlin - Marsch des Prinzen von Wales
TTITLE16=Zentrales Orchester der NVA - Torgauer Parademarsch
TTITLE17=Zentrales Orchester der NVA - Marsch in C-dur - Zapfenstreich
EXTD=
EXTT0=
EXTT1=
EXTT2=
EXTT3=
EXTT4=
EXTT5=
EXTT6=
EXTT7=
EXTT8=
EXTT9=
EXTT10=
EXTT11=
EXTT12=
EXTT13=
EXTT14=
EXTT15=
EXTT16=
EXTT17=
PLAYORDER=
